ply
format ascii 1.0
element vertex 8
property float x
property float y
property float z
element face 6
property list uchar int vertex_index
comment camera: {"o":[-0.000000,-0.000000,-0.000000], "x":[0.410029,0.911976,-0.013265], "y":[-0.401743,0.193644,0.895045], "z":[0.818828,-0.361665,0.445779], "d":14.988801, "p":1, "q":[0.715795,0.438921,0.290618,0.458832]}
comment sculpt: {"x":1, "y":0, "z":0, "name":"SculptDraw"}
comment active: {"o":[0.000000,0.000000,0.000000], "r":[0.000000,0.000000,0.000000], "s":[1.000000,1.000000,1.000000]}
end_header
1.0000000000000000000000000 0.9999999403953552246093750 -1.0000000000000000000000000
1.0000000000000000000000000 -1.0000000000000000000000000 -1.0000000000000000000000000
-1.0000001192092895507812500 -0.9999998211860656738281250 -1.0000000000000000000000000
-0.9999996423721313476562500 1.0000003576278686523437500 -1.0000000000000000000000000
1.0000004768371582031250000 0.9999994635581970214843750 1.0000000000000000000000000
0.9999993443489074707031250 -1.0000005960464477539062500 1.0000000000000000000000000
-1.0000003576278686523437500 -0.9999996423721313476562500 1.0000000000000000000000000
-0.9999999403953552246093750 1.0000000000000000000000000 1.0000000000000000000000000
4 0 1 2 3
4 4 7 6 5
4 0 4 5 1
4 1 5 6 2
4 2 6 7 3
4 4 0 3 7
